# xmcd
#
# Track frame offsets:
#	150
#	14580
#	29487
#	42037
#	60072
#	77930
#	92195
#	107287
#	124555
#	137752
#
# Disc length: 2062 seconds
#
# Revision: 3
# Processed by: cddbd v1.5.2PL0 Copyright (c) Steve Scherf et al.
# Submitted via: EZCDAudioConverter 2.4.0.1
#
DISCID=74080c0a
DTITLE=McBride and The Ride - Sacred Ground
DYEAR=1992
DGENRE=Country
TTITLE0=Love's On the Line
TTITLE1=Sacred Ground
TTITLE2=Makin' Real Good Time
TTITLE3=Going Out of My Mind
TTITLE4=Trick Rider
TTITLE5=All I Have To Offer You Is Me
TTITLE6=Your One and Only
TTITLE7=I'm the One
TTITLE8=Baby I'm Living You Now
TTITLE9=Just One Night
EXTD=
EXTT0=
EXTT1=
EXTT2=
EXTT3=
EXTT4=
EXTT5=
EXTT6=
EXTT7=
EXTT8=
EXTT9=
PLAYORDER=
